Coordinates
version=1
nRows=33
nColumns=34
inDegrees=no

Units are S.I. units (second, meters, Newtons, ...)
If the header above contains a line with 'inDegrees', this indicates whether rotational values are in degrees (yes) or radians (no).

endheader
time	pelvis_tilt	pelvis_list	pelvis_rotation	pelvis_tx	pelvis_ty	pelvis_tz	hip_flexion_r	hip_adduction_r	hip_rotation_r	knee_angle_r	ankle_angle_r	subtalar_angle_r	mtp_angle_r	hip_flexion_l	hip_adduction_l	hip_rotation_l	knee_angle_l	ankle_angle_l	subtalar_angle_l	mtp_angle_l	lumbar_extension	lumbar_bending	lumbar_rotation	arm_flex_r	arm_add_r	arm_rot_r	elbow_flex_r	pro_sup_r	arm_flex_l	arm_add_l	arm_rot_l	elbow_flex_l	pro_sup_l
0.45	0.143147	-0.106184	-0.0127949	0.365621	1.03792	-0.201884	-0.355624	0.178612	0.00967868	0.0742719	0.265593	-0.0146692	0	0.27908	-0.152403	-0.272056	0.0829974	0.0856342	0.156635	0	-0.385839	0.146196	0.198013	0.0948937	-0.34433	-0.0693851	0.838048	1.68176	-0.283839	-0.194947	-0.157645	0.732159	1.65518
0.46	0.14163	-0.111328	-0.0168941	0.378592	1.03529	-0.201702	-0.368684	0.181311	0.0154304	0.0752402	0.272839	-0.00905809	0	0.265276	-0.148681	-0.245169	0.0184587	0.0801488	0.120651	0	-0.38499	0.14949	0.200004	0.0994002	-0.34566	-0.0727505	0.843281	1.68133	-0.287902	-0.189224	-0.16869	0.725469	1.65513
0.47	0.139339	-0.11495	-0.0209174	0.391466	1.03257	-0.201483	-0.374468	0.182462	0.0145718	0.0876854	0.284971	0.00404816	0	0.262142	-0.14754	-0.235736	0	0.0877123	0.117287	0	-0.383576	0.15092	0.200908	0.103976	-0.345982	-0.0758187	0.84772	1.6812	-0.290894	-0.184691	-0.176839	0.718414	1.65439
0.48	0.141557	-0.11708	-0.0243671	0.404124	1.03039	-0.201255	-0.388303	0.181709	0.0172803	0.0940545	0.293031	0.0140167	0	0.275188	-0.149941	-0.222242	0	0.100444	0.118729	0	-0.387614	0.150313	0.201402	0.10886	-0.34542	-0.0796435	0.852169	1.68095	-0.291444	-0.180751	-0.184028	0.709909	1.65393
0.49	0.14048	-0.118044	-0.0280544	0.417099	1.02793	-0.201053	-0.393558	0.179562	0.0115032	0.109754	0.305982	0.03427	0	0.277933	-0.148885	-0.20898	0	0.109873	0.121992	0	-0.387643	0.148528	0.200602	0.112543	-0.34355	-0.0841495	0.856576	1.68067	-0.291744	-0.177574	-0.189652	0.700639	1.65418
0.5	0.136767	-0.118927	-0.0312392	0.430484	1.02536	-0.20092	-0.400507	0.177462	0.00835448	0.117375	0.313705	0.0503984	0	0.268069	-0.145452	-0.193505	0	0.11267	0.122987	0	-0.384222	0.146941	0.198605	0.114648	-0.340652	-0.0892499	0.860804	1.68037	-0.291716	-0.175141	-0.19313	0.69071	1.65535
0.51	0.137068	-0.115399	-0.033906	0.443833	1.02321	-0.200906	-0.401926	0.168365	-0.0255508	0.142911	0.337553	0.111283	0	0.271133	-0.140305	-0.166016	0.0011152	0.11166	0.112703	0	-0.384922	0.140387	0.195675	0.11562	-0.33654	-0.0961365	0.865799	1.6796	-0.289647	-0.174097	-0.194709	0.679219	1.66409
0.52	0.138238	-0.112461	-0.0347107	0.457341	1.02137	-0.200979	-0.412648	0.162531	-0.0290085	0.152317	0.33915	0.123219	0	0.279466	-0.136074	-0.1516	0.0404459	0.117291	0.128781	0	-0.386302	0.134632	0.191259	0.115732	-0.331892	-0.102269	0.870114	1.67933	-0.286983	-0.17394	-0.193733	0.669798	1.66847
0.53	0.138786	-0.106661	-0.0361467	0.471121	1.01954	-0.20115	-0.413634	0.150859	-0.0588338	0.17878	0.353478	0.17224	0	0.290876	-0.130175	-0.159169	0.0882188	0.129184	0.177671	0	-0.386278	0.125743	0.186477	0.113921	-0.326491	-0.108963	0.874529	1.67875	-0.284083	-0.174509	-0.191891	0.660156	1.68322
0.54	0.142034	-0.100958	-0.037012	0.485292	1.01829	-0.201379	-0.42532	0.141337	-0.0645542	0.190585	0.350465	0.185272	0	0.294222	-0.123368	-0.155879	0.127471	0.130047	0.203426	0	-0.388558	0.116801	0.181586	0.110674	-0.320606	-0.115775	0.87848	1.67836	-0.280673	-0.175604	-0.188011	0.652461	1.69315
0.55	0.145062	-0.0912766	-0.0396856	0.49972	1.0172	-0.201678	-0.426996	0.12309	-0.0986876	0.220839	0.35976	0.238556	0	0.295514	-0.113678	-0.16524	0.162821	0.129378	0.237206	0	-0.389893	0.103213	0.17694	0.105883	-0.314065	-0.122565	0.88186	1.6768	-0.277043	-0.176966	-0.185682	0.643208	1.72633
0.56	0.150894	-0.0822468	-0.0422314	0.5144	1.01691	-0.201969	-0.439641	0.109259	-0.100022	0.235106	0.348323	0.243357	0	0.288213	-0.102988	-0.161064	0.186501	0.117828	0.240377	0	-0.39404	0.0900128	0.172689	0.100373	-0.30719	-0.129093	0.883818	1.67649	-0.272511	-0.178838	-0.178881	0.638668	1.73242
0.57	0.156245	-0.0693981	-0.0469922	0.529203	1.01687	-0.20226	-0.442301	0.087199	-0.120541	0.266639	0.343561	0.273967	0	0.279488	-0.0891452	-0.163423	0.206075	0.103102	0.239219	0	-0.39724	0.0721832	0.168917	0.0939424	-0.299687	-0.135347	0.884596	1.67585	-0.267579	-0.181075	-0.171975	0.634479	1.74674
0.58	0.162651	-0.0585095	-0.0513042	0.54411	1.01745	-0.202528	-0.450055	0.0692265	-0.126436	0.289303	0.325893	0.283625	0	0.269398	-0.0779945	-0.168055	0.22495	0.0879674	0.235297	0	-0.401585	0.0562794	0.165268	0.0872456	-0.292106	-0.140637	0.883699	1.67519	-0.261847	-0.183095	-0.164379	0.631763	1.757
0.59	0.167186	-0.0451404	-0.0571152	0.559023	1.01811	-0.202773	-0.446285	0.0451424	-0.143841	0.328722	0.309873	0.306199	0	0.261664	-0.0651122	-0.176124	0.244799	0.0740017	0.228026	0	-0.403667	0.0374	0.161624	0.0800078	-0.28404	-0.145245	0.881543	1.67442	-0.255929	-0.185352	-0.15691	0.630077	1.77058
0.6	0.172078	-0.034963	-0.0612012	0.573945	1.01926	-0.203064	-0.44524	0.0267125	-0.150513	0.361752	0.28163	0.311712	0	0.254665	-0.0558308	-0.183211	0.267535	0.0650092	0.221307	0	-0.406419	0.0222115	0.157253	0.0728082	-0.276114	-0.148738	0.877944	1.67367	-0.249287	-0.187236	-0.149353	0.629812	1.7803
0.61	0.173839	-0.0226105	-0.065592	0.58878	1.02023	-0.203428	-0.430895	0.00285307	-0.165534	0.411967	0.252685	0.32277	0	0.251733	-0.0443411	-0.189888	0.292106	0.0613901	0.213262	0	-0.405692	0.00493155	0.151855	0.0652552	-0.267845	-0.151406	0.873345	1.67297	-0.242701	-0.189368	-0.1423	0.631161	1.79055
0.62	0.176455	-0.0136186	-0.0672522	0.603548	1.02169	-0.203953	-0.419252	-0.0148736	-0.171984	0.456531	0.212614	0.317963	0	0.247378	-0.0353225	-0.191727	0.316548	0.0639434	0.205548	0	-0.406499	-0.00803752	0.144951	0.058058	-0.259966	-0.15309	0.867671	1.67238	-0.235238	-0.191121	-0.135327	0.634129	1.79624
0.63	0.175608	-0.00146935	-0.0689392	0.61815	1.02276	-0.20463	-0.393974	-0.0390749	-0.183396	0.51806	0.171154	0.311629	0	0.245697	-0.0220305	-0.191329	0.338824	0.0708701	0.195725	0	-0.403575	-0.0238443	0.136507	0.0506939	-0.251855	-0.154083	0.861309	1.67213	-0.227907	-0.193295	-0.128801	0.6394	1.79947
0.64	0.176305	0.00785594	-0.0680447	0.632614	1.02431	-0.205514	-0.372031	-0.0583323	-0.188907	0.574244	0.121987	0.293192	0	0.240016	-0.0101105	-0.186519	0.357109	0.0812978	0.186303	0	-0.403123	-0.0358014	0.126635	0.0438988	-0.244374	-0.154472	0.854154	1.67232	-0.219355	-0.195161	-0.12215	0.645799	1.79962
0.65	0.173225	0.0210937	-0.0679326	0.646858	1.02527	-0.206493	-0.337077	-0.0845776	-0.194327	0.645137	0.0710512	0.265706	0	0.236643	0.00666554	-0.181119	0.371336	0.0931813	0.174742	0	-0.398578	-0.0515489	0.115801	0.0369483	-0.236758	-0.154439	0.846594	1.67369	-0.210948	-0.197653	-0.115584	0.654479	1.79588
0.66	0.17235	0.0305372	-0.0660596	0.660897	1.02667	-0.207583	-0.306562	-0.104667	-0.193629	0.709303	0.0140432	0.226306	0	0.228535	0.0202965	-0.173565	0.381575	0.106448	0.165063	0	-0.397384	-0.0626001	0.104726	0.0306966	-0.230156	-0.154346	0.838164	1.68044	-0.200895	-0.199884	-0.106543	0.665226	1.77557
0.67	0.168229	0.0428096	-0.0655998	0.674718	1.02742	-0.208626	-0.266129	-0.129771	-0.190346	0.782311	-0.0454915	0.176567	0	0.223181	0.0361297	-0.170211	0.389863	0.121247	0.159303	0	-0.392587	-0.0766336	0.0938315	0.0242183	-0.223722	-0.153471	0.830502	1.68163	-0.190847	-0.202458	-0.0999445	0.674927	1.77168
0.68	0.166121	0.0510192	-0.0644025	0.688299	1.0285	-0.209658	-0.22968	-0.14893	-0.18362	0.848094	-0.10943	0.118563	0	0.214266	0.0477687	-0.166393	0.395911	0.136456	0.155821	0	-0.390791	-0.0859621	0.0837252	0.018481	-0.21854	-0.152145	0.822549	1.6838	-0.178983	-0.204589	-0.0920682	0.684316	1.76369
0.69	0.162383	0.0600756	-0.0644256	0.701688	1.02916	-0.210564	-0.188503	-0.169432	-0.174283	0.915058	-0.175897	0.0522483	0	0.206716	0.0598057	-0.164725	0.400719	0.151752	0.153409	0	-0.387158	-0.0962032	0.0744715	0.012762	-0.213814	-0.150347	0.814546	1.68657	-0.166645	-0.207165	-0.0834285	0.694277	1.75328
0.7	0.160597	0.0657463	-0.064383	0.714868	1.03008	-0.211376	-0.151152	-0.185368	-0.164504	0.974744	-0.24214	-0.0164627	0	0.196206	0.0680974	-0.163609	0.404188	0.167103	0.153164	0	-0.386147	-0.10264	0.0663102	0.0078574	-0.21025	-0.147875	0.80611	1.68945	-0.152635	-0.209425	-0.073773	0.703554	1.74136
0.71	0.159245	0.0704618	-0.0649975	0.727905	1.03096	-0.212032	-0.114271	-0.199731	-0.153893	1.0304	-0.30424	-0.0864292	0	0.184678	0.0750546	-0.163891	0.406526	0.182295	0.154248	0	-0.385603	-0.108053	0.0590612	0.00341473	-0.207338	-0.144753	0.797232	1.69236	-0.137712	-0.211868	-0.0635194	0.712691	1.72918
0.72	0.159575	0.0728803	-0.0657676	0.7408	1.03205	-0.212541	-0.0806947	-0.210587	-0.143482	1.07984	-0.357102	-0.153787	0	0.170517	0.079401	-0.164825	0.407532	0.197165	0.156925	0	-0.38707	-0.110943	0.0526794	-0.000246165	-0.205228	-0.140973	0.787681	1.6953	-0.121507	-0.214217	-0.0527985	0.721231	1.71767
0.73	0.16136	0.0734316	-0.0666498	0.753578	1.03334	-0.212901	-0.0499691	-0.218183	-0.133139	1.12372	-0.396494	-0.216745	0	0.153945	0.0816006	-0.166246	0.407158	0.211547	0.161018	0	-0.390209	-0.111787	0.0470068	-0.00322016	-0.203732	-0.136706	0.777455	1.69845	-0.104209	-0.216532	-0.0418971	0.729224	1.70765
0.74	0.164102	0.0729986	-0.0675738	0.766291	1.03475	-0.213137	-0.0210902	-0.223256	-0.122411	1.16291	-0.420023	-0.274142	0	0.135497	0.0826789	-0.167789	0.405309	0.225198	0.165977	0	-0.394299	-0.111493	0.0417584	-0.00581135	-0.202603	-0.132274	0.766724	1.70206	-0.0861673	-0.218919	-0.0311017	0.736867	1.69964
0.75	0.168284	0.0707914	-0.0680513	0.778916	1.03644	-0.213334	0.00478974	-0.225087	-0.112543	1.19634	-0.426422	-0.32298	0	0.114467	0.0821177	-0.168027	0.401681	0.237544	0.170672	0	-0.400098	-0.109027	0.0368033	-0.00794127	-0.202001	-0.127893	0.755746	1.70525	-0.0671629	-0.220983	-0.020777	0.743715	1.69508
0.76	0.17241	0.0689219	-0.0683389	0.791553	1.03812	-0.213511	0.0306169	-0.22562	-0.102012	1.22574	-0.420252	-0.365651	0	0.0927324	0.0820129	-0.167768	0.396524	0.248784	0.175313	0	-0.405529	-0.106638	0.0318236	-0.0103597	-0.20148	-0.124129	0.744879	1.70928	-0.0480169	-0.223111	-0.0109524	0.750822	1.69155
0.77	0.17727	0.0654556	-0.0679294	0.804093	1.04002	-0.213752	0.0544042	-0.223266	-0.0931935	1.24909	-0.404521	-0.399737	0	0.0694353	0.0802981	-0.166806	0.389952	0.258872	0.18061	0	-0.411991	-0.102028	0.0270714	-0.0126679	-0.201359	-0.122234	0.732887	1.72679	-0.0281843	-0.224762	-0.000963519	0.758998	1.68023
